<svg xmlns="http://www.w3.org/2000/svg" fill="none" viewBox="0 0 75 75" height="75" width="75">
<path fill="white" d="M17.8673 40.345H14.656V56.2081H17.7838V46.0949L25.3406 56.2081H28.5717V40.345H25.4459V50.4808L17.8673 40.345Z" clip-rule="evenodd" fill-rule="evenodd"></path>
<path fill="white" d="M56.0909 50.503L53.9237 40.345H50.9419L48.7379 50.3885L46.7359 40.345H43.4766L47.0823 56.2081H50.2896L52.4049 46.1732L54.5561 56.2081H57.7059L57.737 56.0731L61.3682 40.345H58.1561L56.0909 50.503Z" clip-rule="evenodd" fill-rule="evenodd"></path>
<path fill="white" d="M16.6407 60.0236H17.8143V60.8982C17.5328 61.113 17.1392 61.2518 16.7063 61.2518C15.7688 61.2518 15.1472 60.5447 15.1472 59.5837V59.5703C15.1472 58.6751 15.79 57.9227 16.6346 57.9227C17.2179 57.9227 17.5651 58.1149 17.9193 58.4223L18.4309 57.8025C17.9576 57.3934 17.4672 57.1683 16.6669 57.1683C15.2844 57.1683 14.3015 58.2753 14.3015 59.5837V59.597C14.3015 60.9568 15.2461 62 16.6811 62C17.4934 62 18.1423 61.666 18.5944 61.2713V59.3092H16.6407V60.0236Z" clip-rule="evenodd" fill-rule="evenodd"></path>
<path fill="white" d="M23.0324 59.5969C23.0324 60.5045 22.3966 61.2455 21.4854 61.2455C20.5751 61.2455 19.9263 60.4922 19.9263 59.5836V59.5702C19.9263 58.6627 20.561 57.9226 21.4713 57.9226C22.3825 57.9226 23.0324 58.676 23.0324 59.5836V59.5969ZM21.487 57.1683C20.0783 57.1683 19.0823 58.2691 19.0823 59.5837V59.597C19.0823 60.9116 20.0652 62 21.4729 62C22.8837 62 23.8787 60.8982 23.8787 59.5837V59.5703C23.8787 58.2547 22.8968 57.1683 21.487 57.1683V57.1683Z" clip-rule="evenodd" fill-rule="evenodd"></path>
<path fill="white" d="M26.0939 60.8386L24.7114 57.2474H23.8203L25.7266 61.9537H26.435L28.3423 57.2474H27.4704L26.0939 60.8386Z" clip-rule="evenodd" fill-rule="evenodd"></path>
<path fill="white" d="M29.6923 59.9312H31.9931V59.1963H29.6923V57.9824H32.2878V57.2476H28.886V61.9199H32.3211V61.1861H29.6923V59.9312Z" clip-rule="evenodd" fill-rule="evenodd"></path>
<path fill="white" d="M33.9114 59.5637V57.9953H35.084C35.6814 57.9953 36.0356 58.2687 36.0356 58.7692V58.7826C36.0356 59.2554 35.6673 59.5637 35.091 59.5637H33.9114ZM36.8527 58.7364V58.722C36.8527 58.315 36.7164 57.9676 36.4732 57.7147C36.1786 57.4218 35.7265 57.2471 35.1503 57.2471H33.1047V61.9195H33.911V60.2914H34.9202L36.0474 61.9195H36.998L35.7588 60.1506C36.4016 59.9636 36.8527 59.5041 36.8527 58.7364V58.7364Z" clip-rule="evenodd" fill-rule="evenodd"></path>
<path fill="white" d="M40.7679 60.4761L38.3097 57.2467H37.5649V61.9191H38.3561V58.5942L40.886 61.9191H41.5621V57.2467H40.7679V60.4761Z" clip-rule="evenodd" fill-rule="evenodd"></path>
<path fill="white" d="M44.6321 59.4563L43.2365 57.2476H42.3777V61.9189H43.1719V58.5816L44.6059 60.7709H44.6321L46.0812 58.5683V61.9189H46.8865V57.2476H46.0277L44.6321 59.4563Z" clip-rule="evenodd" fill-rule="evenodd"></path>
<path fill="white" d="M48.4613 59.9312H50.7622V59.1963H48.4613V57.9824H51.0558V57.2476H47.655V61.9199H51.0901V61.1861H48.4613V59.9312Z" clip-rule="evenodd" fill-rule="evenodd"></path>
<path fill="white" d="M55.0876 60.4762L52.6303 57.2468H51.8826V61.9192H52.6757V58.5943L55.2057 61.9192H55.8808V57.2468H55.0876V60.4762Z" clip-rule="evenodd" fill-rule="evenodd"></path>
<path fill="white" d="M56.5173 58.0081H57.9715V61.9199H58.7849V58.0081H60.239V57.2476H56.5173V58.0081Z" clip-rule="evenodd" fill-rule="evenodd"></path>
<path fill="white" d="M37.5211 45.9204C34.9175 45.241 34.2737 44.9131 34.2737 43.9049V43.8617C34.2737 43.1155 34.9397 42.5245 36.2082 42.5245C37.4787 42.5245 38.7905 43.0939 40.1256 44.0364L41.8462 41.4947C40.3184 40.2459 38.4454 39.5449 36.2526 39.5449C33.1757 39.5449 30.9818 41.3857 30.9818 44.168V44.2111C30.9818 47.2565 32.9386 48.1117 35.972 48.899C38.4898 49.5567 39.0065 49.9946 39.0065 50.8497V50.8939C39.0065 51.7912 38.1881 52.339 36.8328 52.339C35.1122 52.339 33.6924 51.6165 32.3361 50.4777L30.3794 52.8652C32.1868 54.5066 34.4876 55.3186 36.7682 55.3186C40.0166 55.3186 42.2963 53.6083 42.2963 50.564V50.5208C42.2963 47.8485 40.5757 46.7303 37.5211 45.9204" clip-rule="evenodd" fill-rule="evenodd"></path>
<path fill="white" d="M31.1704 34.6587C30.1239 33.8446 28.8766 32.492 28.2146 30.3871C27.59 28.3921 27.2731 26.0313 27.2731 23.3744C27.2731 19.7052 27.8756 16.5591 28.0612 15.6813C28.0663 15.6587 28.0693 15.6443 28.0703 15.6381C28.1783 15.1263 28.4679 14.7203 28.8554 14.5117C26.1166 12.7212 23.7603 11.6698 23.3052 11.4714C23.0327 11.343 22.8844 11.2895 22.8834 11.2895L22.8793 11.2885L22.8763 11.2864C22.7754 11.2443 22.6765 11.2227 22.5816 11.2217C22.2698 11.232 22.0841 11.417 22.0165 11.787C22.0165 11.787 21.9418 12.3358 21.8581 13.2701C21.7794 14.1252 21.6865 15.4829 21.6865 17.0966C21.6865 20.7299 22.1527 25.8925 24.3728 29.8506C26.0773 32.8693 28.4851 34.5703 31.1704 34.6587" clip-rule="evenodd" fill-rule="evenodd"></path>
<path fill="white" d="M37.5978 33.6108C37.8955 34.2583 38.3496 34.7167 38.9864 35.0147C39.2538 35.136 39.5949 35.1977 39.9986 35.1977H40.0177C41.8907 35.1977 45.016 33.6056 46.0948 30.0669C46.674 28.1583 46.9687 25.9084 46.9687 23.3739C46.9687 20.2288 46.5206 17.4887 46.3269 16.4578C46.2522 16.0775 46.2098 15.8699 46.2098 15.8688C46.1634 15.689 46.0746 15.4659 45.9151 15.4659C45.8455 15.4659 45.7698 15.4988 45.684 15.5646C45.681 15.5667 45.5983 15.6314 45.4439 15.7681C45.2875 15.8956 45.0654 16.0888 44.7577 16.3684C44.3459 16.7394 43.5104 17.5287 42.5355 18.6203C40.9906 20.3716 38.944 23.1323 37.9712 26.3278C37.4101 28.1932 37.1306 29.8079 37.1407 31.1276C37.1296 32.1163 37.284 32.9499 37.5978 33.6108" clip-rule="evenodd" fill-rule="evenodd"></path>
<path fill="white" d="M29.9254 15.7717C29.7579 15.632 29.6721 15.5672 29.6711 15.5662C29.5772 15.5004 29.4945 15.4655 29.4279 15.4655C29.2634 15.4655 29.1645 15.6875 29.111 15.8755C29.1029 15.9115 29.0626 16.114 28.9939 16.4593C28.9425 16.7225 28.8385 17.2847 28.7275 18.0802C28.5509 19.3228 28.342 21.2499 28.342 23.3734C28.342 25.947 28.6397 28.1948 29.226 30.0541C30.326 33.6031 33.53 35.1972 35.4544 35.1972H35.4726C35.8783 35.1972 36.2345 35.1324 36.5312 35.0029C36.6886 34.9372 36.84 34.8529 37.0105 34.7378C36.8682 34.5415 36.7421 34.3256 36.6281 34.081C36.2537 33.2886 36.066 32.3235 36.0549 31.1302C36.065 29.6573 36.3677 27.9358 36.953 26.0086C37.0035 25.8329 37.065 25.653 37.1235 25.4773C37.1468 25.4094 37.171 25.3406 37.1942 25.2707C35.1507 20.0998 30.4562 16.2003 29.9254 15.7717" clip-rule="evenodd" fill-rule="evenodd"></path>
<path fill="white" d="M37.3051 7.27134C37.3031 7.27545 37.2072 7.41626 37.0508 7.68041C36.8156 8.07919 36.5916 8.46873 36.3656 8.8706C35.859 9.78534 35.09 11.2613 34.2999 13.1C33.757 14.3529 33.2625 15.6572 32.8306 16.9779C34.3513 18.5268 36.3908 20.9421 37.7491 23.8724C38.7966 21.5763 40.39 19.2884 42.488 17.0684C41.056 12.6426 39.0468 9.03402 38.2446 7.68041C38.075 7.41009 37.9883 7.26723 37.9883 7.26723C37.8308 7.02672 37.7007 7.00103 37.6583 7H37.6512C37.5382 7.00103 37.4221 7.0925 37.3051 7.27134" clip-rule="evenodd" fill-rule="evenodd"></path>
<path fill="white" d="M46.461 14.5051C46.8455 14.7035 47.1422 15.1177 47.2512 15.6316C47.2532 15.6439 47.2572 15.6583 47.2613 15.683C47.4429 16.5586 48.0383 19.7058 48.0383 23.374C48.0383 26.0175 47.7285 28.3763 47.119 30.3857C46.4651 32.4988 45.2491 33.8463 44.2268 34.6552C46.8738 34.5287 49.2442 32.8329 50.9275 29.8502C53.1486 25.8921 53.6138 20.7305 53.6138 17.0962C53.6138 15.8104 53.5563 14.5205 53.4432 13.2604C53.3585 12.3354 53.2838 11.7855 53.2828 11.7804C53.2162 11.4165 53.0285 11.2315 52.7086 11.2223C52.648 11.2233 52.5492 11.2336 52.424 11.286L52.421 11.2881L52.418 11.2891C52.4159 11.2891 52.2686 11.3436 52.0002 11.47C51.7378 11.5789 51.3907 11.7444 50.9517 11.9551L50.7983 12.0271C49.4461 12.6941 48.1291 13.4382 46.8839 14.2389C46.7426 14.3211 46.6013 14.4126 46.461 14.5051" clip-rule="evenodd" fill-rule="evenodd"></path>
<path fill="white" d="M46.9819 12.8862C46.5753 10.7895 46.11 9.22824 45.9264 8.64856C45.9193 8.628 45.9153 8.61361 45.9112 8.60334C45.7992 8.30219 45.6156 8.14905 45.3653 8.14905C45.331 8.14905 45.2957 8.15316 45.2604 8.15727L45.2553 8.1583H45.2523C45.1705 8.16652 45.0868 8.20147 45.001 8.26313L44.997 8.26622L44.9929 8.26827C44.9869 8.27238 44.4066 8.63417 43.5095 9.28991C43.012 9.65375 42.2229 10.253 41.2561 11.067C41.9575 12.5522 42.5861 14.0671 43.127 15.577C44.2805 14.6509 45.5449 13.7691 46.9819 12.8862" clip-rule="evenodd" fill-rule="evenodd"></path>
<path fill="white" d="M34.0459 11.0674C33.282 10.4219 32.5242 9.82478 31.7925 9.29033C30.8954 8.63459 30.3142 8.27177 30.3081 8.26766L30.3041 8.26561L30.301 8.26252C30.2153 8.20188 30.1305 8.16694 30.0488 8.15872H30.0457L30.0417 8.15769C30.0054 8.15255 29.97 8.14844 29.9357 8.14844C29.6855 8.14844 29.5018 8.30261 29.3898 8.60375C29.3857 8.613 29.3817 8.62842 29.3746 8.64795C29.191 9.22866 28.7258 10.7889 28.3191 12.8866C29.7561 13.7695 31.0205 14.6503 32.174 15.5774C32.6876 14.1128 33.3163 12.5957 34.0459 11.0674" clip-rule="evenodd" fill-rule="evenodd"></path>
<path fill="white" d="M21.0472 22.9703C20.8101 21.4862 20.6688 19.8664 20.6284 18.153C19.2116 18.0184 18.0945 17.9793 17.4002 17.9701C17.2509 17.969 17.1106 17.968 16.9794 17.968C16.2014 17.968 15.7503 17.9917 15.7452 17.9917C15.4395 18.0102 15.1569 18.1808 14.9702 18.4614C14.8602 18.6279 14.8047 18.8355 14.8128 19.0431C14.8673 19.5889 15.2245 21.5643 17.5405 24.5398C18.7272 23.9395 19.9059 23.4123 21.0472 22.9703" clip-rule="evenodd" fill-rule="evenodd"></path>
<path fill="white" d="M60.4857 19.0387C60.5039 18.8548 60.405 18.5742 60.3293 18.4621C60.1416 18.1805 59.859 18.0099 59.5512 17.9914C59.5482 17.9914 59.088 17.9678 58.315 17.9678C58.1849 17.9678 58.0456 17.9688 57.8973 17.9698C57.203 17.9791 56.0859 18.0181 54.67 18.1528C54.6307 19.8055 54.4894 21.4243 54.2502 22.9701C55.3916 23.411 56.5702 23.9403 57.758 24.5406C60.079 21.5558 60.4332 19.5783 60.4857 19.0387" clip-rule="evenodd" fill-rule="evenodd"></path>
<path fill="white" d="M61.8848 28.3011L61.8818 28.299L61.8787 28.297C61.7042 28.1623 61.4519 27.9937 61.132 27.78C61.0482 27.7234 60.9594 27.6649 60.8666 27.6032C60.0774 27.0872 58.809 26.304 57.2519 25.5116C56.1781 24.9586 55.1054 24.4735 54.06 24.0717C53.5847 26.5045 52.8429 28.632 51.854 30.3947C50.8227 32.2406 49.532 33.6395 48.0122 34.5655C59.034 33.956 62.1452 30.3433 62.4691 29.926L62.4711 29.924C62.5801 29.7554 62.6346 29.5683 62.6356 29.37V29.3659C62.6346 29.0442 62.4863 28.7317 62.2451 28.5498C62.2451 28.5498 62.1159 28.4614 61.8848 28.3011" clip-rule="evenodd" fill-rule="evenodd"></path>
<path fill="white" d="M27.2894 34.5753C25.7878 33.6544 24.4679 32.2206 23.4476 30.3952C22.4577 28.6315 21.716 26.504 21.2417 24.0712C17.524 25.507 14.5319 27.4999 13.4077 28.3006C13.1837 28.464 13.0555 28.5503 13.0505 28.5544C12.8154 28.7312 12.666 29.0447 12.666 29.3685C12.666 29.5658 12.7205 29.7529 12.8285 29.9214C12.8376 29.9317 12.8436 29.942 12.8487 29.9502C12.8719 29.9759 12.8941 30.0036 12.9203 30.0365C12.9334 30.054 12.9476 30.0704 12.9637 30.091C13.0394 30.1763 13.216 30.3613 13.4925 30.5967C13.9567 31.0006 14.7902 31.6101 16.1324 32.2268C18.9075 33.5074 22.7554 34.3163 27.2894 34.5753" clip-rule="evenodd" fill-rule="evenodd"></path>
<path fill="white" d="M45.5835 35.8531L45.5311 35.8521C44.9589 35.8387 44.311 35.8243 43.6611 35.8243C42.3109 35.8243 40.5651 35.8798 39.0262 36.3177C38.9485 36.3403 38.893 36.4256 38.9 36.4801C38.9081 36.5304 39.003 36.5479 39.0827 36.5479C39.1059 36.5479 39.1301 36.5469 39.1553 36.5448C39.7648 36.4893 40.3552 36.4626 40.9122 36.4626C42.9204 36.4626 44.2918 36.8151 45.6178 37.1564C46.8651 37.477 48.0438 37.7802 49.6816 37.7802C51.4274 37.7802 52.81 37.401 53.3801 36.7668C53.5708 36.5541 53.6566 36.3207 53.6354 36.0751C53.589 35.5992 53.4397 35.3865 52.6757 35.3865C52.1106 35.3865 51.2751 35.5036 50.0116 35.6815C49.8239 35.7071 49.6281 35.7349 49.4223 35.7637C48.8693 35.8438 48.1952 35.8798 47.3001 35.8798C46.7531 35.8798 46.185 35.8675 45.5835 35.8531" clip-rule="evenodd" fill-rule="evenodd"></path>
<path fill="white" d="M34.3884 36.4623C34.9444 36.4623 35.5358 36.4891 36.1443 36.5446C36.1705 36.5466 36.1948 36.5476 36.217 36.5476C36.2967 36.5476 36.3925 36.5302 36.4006 36.4808C36.4077 36.4253 36.3522 36.34 36.2715 36.3164C34.7355 35.8806 32.9887 35.8241 31.6395 35.8241H31.6385C30.9896 35.8241 30.3418 35.8395 29.7696 35.8518L29.7151 35.8529C29.1147 35.8672 28.5465 35.8806 27.9996 35.8806C27.1055 35.8806 26.4314 35.8436 25.8773 35.7634C25.6664 35.7347 25.4656 35.7069 25.2739 35.6792C24.0145 35.5024 23.1819 35.3862 22.6199 35.3862C21.86 35.3862 21.7106 35.599 21.6652 36.0759C21.641 36.3205 21.7248 36.5518 21.9125 36.7625C22.4705 37.3894 23.8904 37.78 25.619 37.78C27.2558 37.78 28.4345 37.4768 29.6828 37.1561C31.0088 36.8138 32.3802 36.4613 34.3884 36.4623" clip-rule="evenodd" fill-rule="evenodd"></path>
</svg>
