<!DOCTYPE svg PUBLIC "-//W3C//DTD SVG 20010904//EN" "http://www.w3.org/TR/2001/REC-SVG-20010904/DTD/svg10.dtd">
<svg version="1.0" xmlns="http://www.w3.org/2000/svg" width="1241px" height="957px" viewBox="0 0 12410 9570" preserveAspectRatio="xMidYMid meet">
<g id="layer1" fill="rgb(199, 0, 0)" stroke="none">
 <path d="M2960 9149 c-60 -16 -87 -31 -140 -74 -139 -115 -127 -97 -156 -230 -24 -114 -25 -126 -15 -243 l11 -122 69 -138 c38 -76 75 -143 83 -149 7 -6 87 -38 178 -72 l166 -62 61 -76 c54 -66 82 -121 213 -406 82 -181 150 -334 150 -341 -1 -28 -26 -40 -174 -81 l-157 -44 -297 -11 -297 -11 -405 -104 -405 -105 -282 -124 c-339 -150 -274 -116 -593 -309 -249 -150 -271 -166 -372 -265 l-107 -105 -50 -136 c-50 -132 -52 -143 -82 -390 l-31 -254 21 -150 21 -150 115 -212 115 -211 178 -162 c173 -158 185 -167 447 -327 254 -155 291 -174 669 -344 l401 -181 360 -45 359 -45 37 -37 c21 -21 210 -282 421 -580 334 -472 407 -569 568 -753 l185 -211 260 -203 c316 -246 459 -344 815 -560 l275 -167 427 -140 428 -140 323 -45 323 -45 444 75 443 75 352 221 353 221 173 267 c95 147 183 283 196 303 14 22 53 143 98 310 l75 274 19 264 c11 145 24 268 29 273 6 6 280 41 609 79 l598 69 445 161 c245 89 450 164 456 166 9 3 314 346 420 472 22 26 23 40 34 277 l11 249 -104 237 c-57 130 -113 247 -123 260 -11 14 -93 113 -184 222 l-165 198 -310 221 c-170 121 -377 273 -460 337 -82 64 -161 124 -175 132 -36 23 -877 366 -1109 452 -112 42 -271 92 -369 116 -127 31 -172 46 -168 56 4 12 57 93 320 497 l77 118 95 -52 c94 -50 97 -51 157 -45 34 4 103 23 154 42 86 33 94 39 150 105 78 93 93 150 100 361 l5 157 -36 109 c-31 91 -49 127 -110 213 -71 101 -77 106 -177 165 -91 54 -120 66 -236 94 l-132 32 -98 -21 c-73 -17 -117 -33 -174 -67 -74 -43 -77 -46 -107 -117 -28 -66 -32 -85 -37 -217 -6 -124 -4 -159 14 -245 17 -82 28 -110 62 -158 22 -32 39 -61 37 -66 -10 -25 -524 -714 -536 -718 -8 -4 -249 37 -536 90 -404 75 -646 114 -1076 171 -305 41 -589 77 -630 81 -41 4 -210 29 -375 57 l-300 50 -635 -4 -635 -3 -223 433 -224 433 97 104 97 104 30 112 30 111 -21 121 c-20 120 -20 120 -91 227 -63 95 -81 115 -153 166 -85 60 -130 79 -282 118 -134 35 -215 39 -305 15z m1503 -2432 c40 -17 101 -84 122 -133 55 -131 1 -309 -111 -364 -50 -25 -67 -25 -119 0 -43 21 -91 78 -116 140 -22 56 -18 176 9 231 38 77 110 137 165 139 10 0 32 -6 50 -13z m-1362 -139 c50 -14 114 -69 139 -118 54 -107 25 -218 -77 -296 -106 -81 -257 -34 -319 100 -29 62 -30 117 -3 176 27 60 64 98 124 126 56 27 81 29 136 12z m3128 -66 c56 -34 108 -108 116 -167 14 -93 -45 -194 -141 -241 -46 -22 -63 -26 -105 -21 -92 11 -173 77 -205 164 -20 57 -17 104 12 161 64 129 208 175 323 104z m1711 -266 c129 -65 166 -241 76 -359 -92 -121 -237 -109 -321 28 -26 42 -30 58 -30 119 0 60 4 79 28 118 42 72 108 115 177 117 14 0 45 -10 70 -23z m-5795 -30 c19 -15 41 -45 51 -71 15 -39 15 -51 4 -88 -14 -49 -67 -103 -110 -112 -67 -15 -137 36 -161 115 -14 45 -8 74 23 120 49 72 127 86 193 36z m7100 -470 c120 -56 157 -174 86 -273 -45 -62 -94 -88 -168 -88 -52 0 -68 4 -104 30 -106 75 -127 186 -52 276 32 37 115 79 158 79 17 0 53 -11 80 -24z m-7801 -50 c134 -79 133 -264 -2 -343 -95 -56 -211 -24 -269 75 -59 100 -22 217 87 275 67 35 116 33 184 -7z m8749 -420 c61 -25 117 -111 117 -181 0 -73 -62 -164 -127 -186 -50 -16 -102 1 -146 50 -72 80 -74 188 -4 268 51 58 102 74 160 49z m-8735 -461 c20 -9 48 -26 61 -38 31 -29 71 -114 71 -152 0 -38 -40 -123 -71 -152 -31 -28 -90 -53 -126 -53 -73 1 -163 76 -184 154 -24 89 22 186 110 233 52 27 87 29 139 8z m688 -418 c78 -33 127 -95 139 -172 20 -122 -96 -257 -206 -242 -56 7 -113 48 -146 104 -61 104 -26 232 80 293 57 32 89 37 133 17z m8432 -297 c71 -52 89 -154 40 -227 -32 -48 -87 -77 -132 -69 -61 12 -126 95 -126 163 0 58 48 125 110 155 24 12 77 1 108 -22z m-5893 -250 l540 -30 1411 -160 c1192 -135 1458 -169 1715 -214 l304 -53 -3 -77 c-2 -57 -27 -175 -97 -454 -77 -307 -204 -756 -217 -767 -7 -6 -454 -312 -466 -319 -7 -4 -150 -56 -318 -116 l-305 -109 -319 -20 -319 -21 -163 25 c-162 25 -164 26 -413 130 -137 57 -394 172 -570 255 l-320 150 -173 173 c-211 209 -338 356 -546 632 -156 207 -160 214 -302 497 l-144 288 0 108 c0 60 3 112 7 116 4 4 41 4 83 1 41 -3 318 -19 615 -35z m4938 6 c41 -17 72 -51 92 -100 22 -53 12 -104 -31 -154 -65 -77 -149 -78 -217 -3 -60 66 -61 143 -4 208 51 58 102 74 160 49z"/>
 </g>

</svg>